<svg width="191" height="60" viewBox="0 0 191 60" fill="none" xmlns="http://www.w3.org/2000/svg">
<path d="M26.3256 16.6545H32.0403V35.7216C32.0403 37.4841 31.6442 39.0152 30.852 40.3148C30.0687 41.6144 28.9782 42.6158 27.5807 43.319C26.1831 44.0223 24.5586 44.3739 22.7071 44.3739C21.0603 44.3739 19.5649 44.0846 18.2207 43.506C16.8855 42.9185 15.8262 42.0283 15.0429 40.8355C14.2596 39.6338 13.8723 38.125 13.8812 36.3091H19.6361C19.6539 37.0301 19.8008 37.6488 20.0767 38.1651C20.3616 38.6724 20.7488 39.0641 21.2384 39.3401C21.7368 39.6071 22.3243 39.7406 23.0009 39.7406C23.713 39.7406 24.3138 39.5893 24.8034 39.2866C25.3019 38.9751 25.6802 38.5211 25.9384 37.9247C26.1965 37.3283 26.3256 36.5939 26.3256 35.7216V16.6545Z" fill="#FCFDFF"/>
<rect x="18" y="17" width="7" height="5" fill="#FCFDFF"/>
<rect x="56" y="28" width="13" height="5" fill="#FCFDFF"/>
<path d="M74.3767 44V16.6545H85.3256C87.3373 16.6545 89.0152 16.9527 90.3594 17.5491C91.7035 18.1456 92.7138 18.9734 93.3903 20.0327C94.0669 21.0831 94.4051 22.2937 94.4051 23.6645C94.4051 24.7327 94.1915 25.6718 93.7642 26.4818C93.3369 27.283 92.7494 27.9417 92.0017 28.458C91.2629 28.9653 90.4172 29.3259 89.4648 29.5395V29.8065C90.5062 29.851 91.481 30.1448 92.3889 30.6878C93.3058 31.2308 94.0491 31.9919 94.6187 32.971C95.1884 33.9413 95.4733 35.0985 95.4733 36.4426C95.4733 37.8936 95.1128 39.1887 94.3918 40.3281C93.6796 41.4586 92.6248 42.3532 91.2273 43.0119C89.8297 43.6706 88.1073 44 86.0599 44H74.3767ZM80.1582 39.2733H84.8716C86.4828 39.2733 87.6578 38.9662 88.3966 38.352C89.1354 37.7289 89.5048 36.901 89.5048 35.8685C89.5048 35.1118 89.3223 34.4442 88.9574 33.8656C88.5924 33.287 88.0717 32.833 87.3952 32.5037C86.7276 32.1743 85.9309 32.0097 85.0051 32.0097H80.1582V39.2733ZM80.1582 28.0974H84.4443C85.2366 28.0974 85.9398 27.9595 86.554 27.6835C87.1771 27.3987 87.6667 26.9981 88.0227 26.4818C88.3877 25.9655 88.5702 25.3469 88.5702 24.6259C88.5702 23.6378 88.2186 22.8411 87.5153 22.2358C86.821 21.6305 85.833 21.3278 84.5511 21.3278H80.1582V28.0974ZM103.949 44H97.7532L107.193 16.6545H114.644L124.071 44H117.875L111.025 22.9034H110.812L103.949 44ZM103.561 33.2514H118.196V37.7645H103.561V33.2514ZM150.204 26.2281H144.356C144.249 25.4715 144.031 24.7994 143.702 24.2119C143.372 23.6155 142.95 23.1081 142.433 22.6898C141.917 22.2714 141.321 21.9509 140.644 21.7284C139.976 21.5059 139.251 21.3946 138.468 21.3946C137.052 21.3946 135.819 21.7462 134.769 22.4494C133.719 23.1438 132.904 24.1585 132.326 25.4938C131.747 26.8201 131.458 28.4312 131.458 30.3273C131.458 32.2767 131.747 33.9146 132.326 35.2409C132.913 36.5672 133.732 37.5687 134.782 38.2452C135.833 38.9217 137.048 39.2599 138.428 39.2599C139.202 39.2599 139.919 39.1576 140.577 38.9528C141.245 38.7481 141.837 38.4499 142.353 38.0582C142.869 37.6577 143.297 37.1725 143.635 36.6028C143.982 36.0331 144.222 35.3833 144.356 34.6534L150.204 34.6801C150.053 35.9352 149.675 37.1458 149.069 38.3119C148.473 39.4691 147.667 40.5062 146.653 41.423C145.647 42.331 144.445 43.052 143.047 43.5861C141.659 44.1113 140.088 44.3739 138.334 44.3739C135.895 44.3739 133.714 43.822 131.791 42.7182C129.878 41.6144 128.364 40.0166 127.252 37.9247C126.148 35.8329 125.596 33.3004 125.596 30.3273C125.596 27.3453 126.157 24.8083 127.278 22.7165C128.4 20.6246 129.922 19.0313 131.845 17.9364C133.768 16.8326 135.931 16.2807 138.334 16.2807C139.919 16.2807 141.387 16.5032 142.74 16.9483C144.102 17.3934 145.308 18.0432 146.359 18.8977C147.409 19.7434 148.264 20.7804 148.922 22.0088C149.59 23.2372 150.017 24.6437 150.204 26.2281ZM169.185 24.519C169.078 23.442 168.619 22.6052 167.809 22.0088C166.999 21.4124 165.9 21.1142 164.511 21.1142C163.568 21.1142 162.771 21.2477 162.121 21.5148C161.471 21.7729 160.973 22.1334 160.626 22.5963C160.287 23.0592 160.118 23.5844 160.118 24.1719C160.101 24.6615 160.203 25.0887 160.425 25.4537C160.657 25.8187 160.973 26.1347 161.373 26.4017C161.774 26.6598 162.237 26.8868 162.762 27.0827C163.287 27.2696 163.848 27.4298 164.444 27.5634L166.901 28.1509C168.094 28.4179 169.189 28.774 170.186 29.219C171.183 29.6641 172.046 30.2116 172.776 30.8614C173.506 31.5112 174.071 32.2767 174.472 33.158C174.881 34.0392 175.091 35.0495 175.1 36.1889C175.091 37.8624 174.663 39.3134 173.818 40.5418C172.981 41.7613 171.77 42.7093 170.186 43.3858C168.61 44.0534 166.71 44.3872 164.485 44.3872C162.277 44.3872 160.354 44.049 158.716 43.3724C157.087 42.6959 155.814 41.6945 154.898 40.3682C153.99 39.033 153.513 37.3817 153.469 35.4145H159.063C159.126 36.3313 159.388 37.0969 159.851 37.7111C160.323 38.3164 160.951 38.7748 161.734 39.0864C162.526 39.389 163.421 39.5403 164.418 39.5403C165.397 39.5403 166.247 39.3979 166.968 39.1131C167.698 38.8282 168.263 38.4321 168.664 37.9247C169.064 37.4173 169.265 36.8343 169.265 36.1756C169.265 35.5614 169.082 35.0451 168.717 34.6267C168.361 34.2083 167.836 33.8523 167.142 33.5585C166.456 33.2648 165.615 32.9977 164.618 32.7574L161.64 32.0097C159.335 31.4489 157.515 30.5721 156.179 29.3793C154.844 28.1865 154.181 26.5797 154.19 24.5591C154.181 22.9034 154.622 21.4569 155.512 20.2196C156.411 18.9823 157.644 18.0165 159.21 17.3222C160.777 16.6278 162.557 16.2807 164.551 16.2807C166.581 16.2807 168.352 16.6278 169.865 17.3222C171.388 18.0165 172.572 18.9823 173.417 20.2196C174.263 21.4569 174.699 22.8901 174.726 24.519H169.185Z" fill="black"/>
<rect x="36" y="17" width="5" height="27" fill="#FCFDFF"/>
<rect x="54" y="39" width="5" height="12" transform="rotate(90 54 39)" fill="#FCFDFF"/>
</svg>
